<svg width="133" height="37" viewBox="0 0 133 37" fill="none" xmlns="http://www.w3.org/2000/svg">
<circle cx="20.2329" cy="19.8585" r="16.6069" fill="#00A86B"/>
<path d="M5.54216 11.1969L16.9778 11.1969C21.7609 11.1969 23.77 17.3018 19.9217 20.1424V20.1424C16.4043 22.7387 17.7256 28.286 22.0358 29.0179L32.0409 30.7169" stroke="white" stroke-width="5"/>
<path d="M58.0615 26.7081H46.289V24.0357L54.3686 12.9419H46.468V10.2919H57.9272V12.852L49.7804 24.0581H58.0615V26.7081Z" fill="#00A86B"/>
<path d="M63.6059 27C62.442 27 61.517 26.6856 60.8306 26.0568C60.1592 25.413 59.8234 24.5746 59.8234 23.5416C59.8234 22.5236 60.1741 21.7151 60.8754 21.1162C61.5916 20.5024 62.6062 20.1431 63.9192 20.0383L67.2316 19.7688V19.5218C67.2316 19.0128 67.1346 18.6085 66.9407 18.3091C66.7616 17.9947 66.5005 17.7701 66.1573 17.6354C65.8141 17.4857 65.4113 17.4108 64.9487 17.4108C64.143 17.4108 63.5238 17.5755 63.0911 17.9049C62.6584 18.2193 62.442 18.6684 62.442 19.2523H60.1144C60.1144 18.4439 60.3158 17.7477 60.7187 17.1638C61.1365 16.5649 61.7184 16.1008 62.4644 15.7715C63.2254 15.4421 64.0982 15.2774 65.083 15.2774C66.0827 15.2774 66.9407 15.4571 67.6569 15.8164C68.3731 16.1607 68.9251 16.6847 69.3131 17.3884C69.701 18.0771 69.895 18.9379 69.895 19.9709V26.7081H67.5002L67.2988 25.0687C67.06 25.6376 66.5975 26.1017 65.9111 26.461C65.2397 26.8203 64.4713 27 63.6059 27ZM64.4787 24.9339C65.3292 24.9339 66.0006 24.6944 66.493 24.2153C67.0003 23.7362 67.254 23.07 67.254 22.2166V21.6328L64.9487 21.8124C64.0982 21.8873 63.494 22.0669 63.1359 22.3514C62.7778 22.6209 62.5987 22.9802 62.5987 23.4293C62.5987 23.9234 62.7628 24.2977 63.0911 24.5522C63.4194 24.8067 63.8819 24.9339 64.4787 24.9339Z" fill="#00A86B"/>
<path d="M72.5774 26.7081V15.6143H75.3079V26.7081H72.5774ZM73.9203 13.391C73.4577 13.391 73.0623 13.2338 72.7341 12.9194C72.4207 12.59 72.2641 12.1933 72.2641 11.7292C72.2641 11.2651 72.4207 10.8758 72.7341 10.5614C73.0623 10.247 73.4577 10.0898 73.9203 10.0898C74.3828 10.0898 74.7707 10.247 75.0841 10.5614C75.4123 10.8758 75.5765 11.2651 75.5765 11.7292C75.5765 12.1933 75.4123 12.59 75.0841 12.9194C74.7707 13.2338 74.3828 13.391 73.9203 13.391Z" fill="#00A86B"/>
<path d="M80.658 26.7081H78.129V10H80.8595V17.2312C81.2176 16.6024 81.7398 16.1233 82.4262 15.7939C83.1125 15.4496 83.8809 15.2774 84.7314 15.2774C85.7908 15.2774 86.6935 15.5319 87.4395 16.041C88.2005 16.535 88.7824 17.2312 89.1853 18.1295C89.6031 19.0277 89.8119 20.0683 89.8119 21.251C89.8119 22.3738 89.5956 23.3694 89.1629 24.2378C88.7302 25.1061 88.1184 25.7873 87.3276 26.2814C86.5368 26.7605 85.6117 27 84.5524 27C83.7317 27 82.9857 26.8203 82.3142 26.461C81.6577 26.1017 81.1653 25.6077 80.8371 24.9789L80.658 26.7081ZM80.8819 21.1162C80.8819 21.775 81.0087 22.3664 81.2623 22.8904C81.516 23.3994 81.8741 23.7961 82.3366 24.0806C82.8141 24.3501 83.3662 24.4848 83.9928 24.4848C84.6344 24.4848 85.1865 24.3426 85.649 24.0581C86.1116 23.7737 86.4622 23.3769 86.701 22.8679C86.9397 22.3589 87.0591 21.775 87.0591 21.1162C87.0591 20.4575 86.9397 19.8736 86.701 19.3646C86.4622 18.8556 86.1116 18.4588 85.649 18.1744C85.1865 17.8749 84.6344 17.7252 83.9928 17.7252C83.3662 17.7252 82.8141 17.8749 82.3366 18.1744C81.8741 18.4588 81.516 18.8556 81.2623 19.3646C81.0087 19.8587 80.8819 20.4425 80.8819 21.1162Z" fill="#00A86B"/>
<path d="M95.2761 27C94.1123 27 93.1872 26.6856 92.5008 26.0568C91.8294 25.413 91.4937 24.5746 91.4937 23.5416C91.4937 22.5236 91.8443 21.7151 92.5456 21.1162C93.2618 20.5024 94.2764 20.1431 95.5894 20.0383L98.9018 19.7688V19.5218C98.9018 19.0128 98.8049 18.6085 98.6109 18.3091C98.4318 17.9947 98.1707 17.7701 97.8275 17.6354C97.4844 17.4857 97.0815 17.4108 96.619 17.4108C95.8132 17.4108 95.194 17.5755 94.7613 17.9049C94.3286 18.2193 94.1123 18.6684 94.1123 19.2523H91.7846C91.7846 18.4439 91.9861 17.7477 92.3889 17.1638C92.8067 16.5649 93.3886 16.1008 94.1347 15.7715C94.8956 15.4421 95.7685 15.2774 96.7533 15.2774C97.7529 15.2774 98.6109 15.4571 99.3271 15.8164C100.043 16.1607 100.595 16.6847 100.983 17.3884C101.371 18.0771 101.565 18.9379 101.565 19.9709V26.7081H99.1704L98.969 25.0687C98.7303 25.6376 98.2677 26.1017 97.5814 26.461C96.9099 26.8203 96.1415 27 95.2761 27ZM96.149 24.9339C96.9994 24.9339 97.6709 24.6944 98.1633 24.2153C98.6706 23.7362 98.9242 23.07 98.9242 22.2166V21.6328L96.619 21.8124C95.7685 21.8873 95.1642 22.0669 94.8061 22.3514C94.448 22.6209 94.2689 22.9802 94.2689 23.4293C94.2689 23.9234 94.4331 24.2977 94.7613 24.5522C95.0896 24.8067 95.5521 24.9339 96.149 24.9339Z" fill="#00A86B"/>
<path d="M102.998 15.6143H109.981V17.9049H102.998V15.6143ZM107.855 26.7081H105.124V12.1559H107.855V26.7081Z" fill="#00A86B"/>
<path d="M110.85 23.3395H113.446C113.461 23.8186 113.64 24.2004 113.984 24.4848C114.327 24.7693 114.804 24.9115 115.416 24.9115C116.073 24.9115 116.565 24.7917 116.893 24.5522C117.236 24.3126 117.408 23.9908 117.408 23.5865C117.408 23.317 117.318 23.0775 117.139 22.8679C116.96 22.6583 116.625 22.5011 116.132 22.3963L114.14 21.9247C113.141 21.7001 112.395 21.3408 111.902 20.8468C111.425 20.3377 111.186 19.6416 111.186 18.7583C111.186 18.0396 111.372 17.4183 111.745 16.8943C112.133 16.3703 112.656 15.9736 113.312 15.7041C113.969 15.4196 114.722 15.2774 115.573 15.2774C116.393 15.2774 117.117 15.4271 117.744 15.7266C118.37 16.026 118.855 16.4452 119.198 16.9841C119.557 17.5231 119.743 18.1519 119.758 18.8705H117.162C117.162 18.3915 117.013 18.0172 116.714 17.7477C116.416 17.4632 115.998 17.321 115.461 17.321C114.924 17.321 114.506 17.4408 114.207 17.6803C113.909 17.9199 113.76 18.2417 113.76 18.646C113.76 19.2598 114.237 19.679 115.192 19.9036L117.184 20.3752C118.109 20.5848 118.803 20.9216 119.266 21.3857C119.743 21.8498 119.982 22.5086 119.982 23.362C119.982 24.1105 119.788 24.7618 119.4 25.3157C119.012 25.8547 118.467 26.2739 117.766 26.5733C117.065 26.8578 116.259 27 115.349 27C113.976 27 112.879 26.6631 112.059 25.9894C111.253 25.3157 110.85 24.4324 110.85 23.3395Z" fill="#00A86B"/>
<path d="M129.558 15.6143H132.289V26.7081H129.76L129.558 25.2259C129.23 25.7499 128.738 26.1766 128.081 26.5059C127.425 26.8353 126.724 27 125.977 27C124.709 27 123.717 26.5958 123.001 25.7873C122.285 24.9789 121.926 23.9009 121.926 22.5535V15.6143H124.657V21.5878C124.657 22.6358 124.858 23.3919 125.261 23.856C125.664 24.3201 126.246 24.5522 127.007 24.5522C127.872 24.5522 128.514 24.2977 128.932 23.7886C129.35 23.2646 129.558 22.4786 129.558 21.4306V15.6143Z" fill="#00A86B"/>
</svg>
