<svg width="265" height="86" viewBox="0 0 265 86" fill="none" xmlns="http://www.w3.org/2000/svg">
<path d="M263.904 5.62213C264.175 5.675 264.438 5.49815 264.491 5.22711C264.544 4.95608 264.367 4.6935 264.096 4.64063L263.904 5.62213ZM0.884145 80.7454C32.1279 88.1874 54.3716 85.2738 72.6279 77.1608C90.854 69.0612 105.072 55.788 120.25 42.6344C135.446 29.4657 151.636 16.3824 173.876 8.49981C196.109 0.61964 224.434 -2.07741 263.904 5.62213L264.096 4.64063C224.489 -3.08568 195.977 -0.39446 173.542 7.55726C151.114 15.5066 134.804 28.6987 119.595 41.8787C104.369 55.0737 90.2794 68.2222 72.2218 76.2469C54.1946 84.2582 32.179 87.1716 1.11585 79.7726L0.884145 80.7454Z" fill="#1A202C"/>
</svg>
