<svg width="25" height="24" viewBox="0 0 25 24" fill="none" xmlns="http://www.w3.org/2000/svg">
<path d="M22.7422 13V9C22.7422 4 20.7422 2 15.7422 2H9.74219C4.74219 2 2.74219 4 2.74219 9V15C2.74219 20 4.74219 22 9.74219 22H13.7422" stroke="#FF7051" stroke-width="1.5" stroke-linecap="round" stroke-linejoin="round"/>
<path d="M8.07217 14.49L10.4522 11.4C10.7922 10.96 11.4222 10.88 11.8622 11.22L13.6922 12.66C14.1322 13 14.7622 12.92 15.1022 12.49L17.4122 9.51001" stroke="#FF7051" stroke-width="1.5" stroke-linecap="round" stroke-linejoin="round"/>
<path d="M20.2222 15.82L20.5022 16.39C20.6422 16.67 20.9922 16.93 21.3022 16.99L21.6822 17.05C22.8222 17.24 23.0922 18.08 22.2722 18.91L21.9222 19.26C21.6922 19.5 21.5622 19.96 21.6322 20.28L21.6822 20.49C21.9922 21.87 21.2622 22.4 20.0622 21.68L19.8022 21.53C19.4922 21.35 18.9922 21.35 18.6822 21.53L18.4222 21.68C17.2122 22.41 16.4822 21.87 16.8022 20.49L16.8522 20.28C16.9222 19.96 16.7922 19.5 16.5622 19.26L16.2122 18.91C15.3922 18.08 15.6622 17.24 16.8022 17.05L17.1822 16.99C17.4822 16.94 17.8422 16.67 17.9822 16.39L18.2622 15.82C18.8022 14.73 19.6822 14.73 20.2222 15.82Z" stroke="#FF7051" stroke-width="1.5" stroke-linecap="round" stroke-linejoin="round"/>
</svg>
