<svg width="45" height="41" viewBox="0 0 45 41" fill="none" xmlns="http://www.w3.org/2000/svg">
<path d="M3.625 37.75H9.875V34.625H3.625V3.375H15.4902L21.7402 9.625H41.125V22.125H44.25V9.625C44.25 9.20182 44.1686 8.80306 44.0059 8.42871C43.8431 8.05436 43.6152 7.7207 43.3223 7.42773C43.0293 7.13477 42.6956 6.9069 42.3213 6.74414C41.9469 6.58138 41.5482 6.5 41.125 6.5H23.0098L17.6875 1.17773C17.5573 1.01497 17.4027 0.876629 17.2236 0.762695C17.0446 0.648762 16.8574 0.559246 16.6621 0.494141C16.4668 0.396484 16.2715 0.331379 16.0762 0.298828C15.8809 0.266277 15.6855 0.25 15.4902 0.25H3.625C3.20182 0.25 2.80306 0.331379 2.42871 0.494141C2.05436 0.656902 1.7207 0.884766 1.42773 1.17773C1.13477 1.4707 0.906901 1.80436 0.744141 2.17871C0.58138 2.55306 0.5 2.95182 0.5 3.375V34.625C0.5 35.0482 0.58138 35.4469 0.744141 35.8213C0.906901 36.1956 1.13477 36.5293 1.42773 36.8223C1.7207 37.1152 2.05436 37.3431 2.42871 37.5059C2.80306 37.6686 3.20182 37.75 3.625 37.75ZM23.9375 26.8125H13V15.875H23.9375V26.8125ZM16.125 23.6875H20.8125V19H16.125V23.6875ZM23.9375 40.875H13V29.9375H23.9375V40.875ZM16.125 37.75H20.8125V33.0625H16.125V37.75ZM27.0625 26.8125H38V15.875H27.0625V26.8125ZM34.875 23.6875H30.1875V19H34.875V23.6875ZM38 40.875H27.0625V29.9375H38V40.875ZM30.1875 37.75H34.875V33.0625H30.1875V37.75Z" fill="#00A86B"/>
</svg>
