<svg width="44" height="45" viewBox="0 0 44 45" fill="none" xmlns="http://www.w3.org/2000/svg">
<path d="M12.8418 12.2559C12.321 12.6139 11.7676 12.8825 11.1816 13.0615C10.5957 13.2406 9.99349 13.3301 9.375 13.3301C8.5612 13.3301 7.76367 13.1755 6.98242 12.8662C6.20117 12.557 5.51758 12.1094 4.93164 11.5234C4.3457 10.9375 3.89811 10.2539 3.58887 9.47266C3.27962 8.69141 3.125 7.89388 3.125 7.08008C3.125 6.46159 3.21452 5.85938 3.39355 5.27344C3.57259 4.6875 3.84115 4.13411 4.19922 3.61328C4.52474 3.09245 4.9235 2.63672 5.39551 2.24609C5.86751 1.85547 6.39648 1.54622 6.98242 1.31836C7.56836 1.05794 8.16243 0.90332 8.76465 0.854492C9.36686 0.805664 9.97721 0.830078 10.5957 0.927734C11.2142 1.05794 11.792 1.26953 12.3291 1.5625C12.8662 1.85547 13.3626 2.21354 13.8184 2.63672C14.2415 3.09245 14.5996 3.58887 14.8926 4.12598C15.1855 4.66309 15.3971 5.24089 15.5273 5.85938C15.625 6.47786 15.6494 7.08821 15.6006 7.69043C15.5518 8.29264 15.3971 8.88672 15.1367 9.47266C14.9089 10.0586 14.5996 10.5876 14.209 11.0596C13.8184 11.5316 13.3626 11.9303 12.8418 12.2559ZM11.1328 4.49219C10.8724 4.32943 10.5876 4.19922 10.2783 4.10156C9.96908 4.00391 9.66797 3.95508 9.375 3.95508C8.95182 3.95508 8.55306 4.03646 8.17871 4.19922C7.80436 4.36198 7.4707 4.58984 7.17773 4.88281C6.88477 5.17578 6.6569 5.50944 6.49414 5.88379C6.33138 6.25814 6.25 6.6569 6.25 7.08008C6.25 7.37305 6.29883 7.67415 6.39648 7.9834C6.49414 8.29264 6.62435 8.57747 6.78711 8.83789C6.94987 9.06575 7.15332 9.27734 7.39746 9.47266C7.6416 9.66797 7.91016 9.83073 8.20312 9.96094C8.46354 10.0911 8.74837 10.1725 9.05762 10.2051C9.36686 10.2376 9.66797 10.2214 9.96094 10.1562C10.2865 10.0911 10.5876 9.98535 10.8643 9.83887C11.141 9.69238 11.377 9.50521 11.5723 9.27734C11.8001 9.08203 11.9873 8.84603 12.1338 8.56934C12.2803 8.29264 12.3861 7.99154 12.4512 7.66602C12.5163 7.37305 12.5326 7.07194 12.5 6.7627C12.4674 6.45345 12.3861 6.16862 12.2559 5.9082C12.1257 5.61523 11.9629 5.34668 11.7676 5.10254C11.5723 4.8584 11.3607 4.65495 11.1328 4.49219ZM34.375 16.4551V14.8926C34.375 14.3717 34.3262 13.859 34.2285 13.3545C34.1309 12.8499 33.9844 12.3698 33.7891 11.9141C33.5938 11.4258 33.3496 10.9701 33.0566 10.5469C32.7637 10.1237 32.4382 9.73307 32.0801 9.375C31.722 9.01693 31.3314 8.69141 30.9082 8.39844C30.485 8.10547 30.0293 7.86133 29.541 7.66602C29.0853 7.4707 28.6051 7.32422 28.1006 7.22656C27.596 7.12891 27.0833 7.08008 26.5625 7.08008H21.875V3.95508H26.5625C28.0273 3.95508 29.4271 4.23177 30.7617 4.78516C32.0964 5.33854 33.2682 6.13607 34.2773 7.17773C35.319 8.18685 36.1165 9.35872 36.6699 10.6934C37.2233 12.028 37.5 13.4277 37.5 14.8926V16.4551H34.375ZM6.25 28.9551V30.5176C6.25 31.5592 6.44531 32.5602 6.83594 33.5205C7.22656 34.4808 7.79622 35.319 8.54492 36.0352C9.26107 36.7839 10.0993 37.3535 11.0596 37.7441C12.0199 38.1348 13.0208 38.3301 14.0625 38.3301H18.75V41.4551H14.0625C12.5977 41.4551 11.1979 41.1784 9.86328 40.625C8.52865 40.0716 7.35677 39.2741 6.34766 38.2324C5.30599 37.2233 4.50846 36.0514 3.95508 34.7168C3.40169 33.3822 3.125 31.9824 3.125 30.5176V28.9551H6.25ZM14.0625 14.8926H4.6875C4.06901 14.8926 3.47493 15.0146 2.90527 15.2588C2.33561 15.5029 1.82292 15.8366 1.36719 16.2598C0.94401 16.7155 0.610352 17.2282 0.366211 17.7979C0.12207 18.3675 0 18.9616 0 19.5801V22.7051H3.125V19.5801C3.125 19.3848 3.16569 19.1895 3.24707 18.9941C3.32845 18.7988 3.43424 18.6198 3.56445 18.457C3.72721 18.3268 3.90625 18.221 4.10156 18.1396C4.29688 18.0583 4.49219 18.0176 4.6875 18.0176H14.0625C14.2578 18.0176 14.4531 18.0583 14.6484 18.1396C14.8438 18.221 15.0228 18.3268 15.1855 18.457C15.3158 18.6198 15.4215 18.7988 15.5029 18.9941C15.5843 19.1895 15.625 19.3848 15.625 19.5801V22.7051H18.75V19.5801C18.75 18.9616 18.6279 18.3675 18.3838 17.7979C18.1396 17.2282 17.806 16.7155 17.3828 16.2598C16.9271 15.8366 16.4144 15.5029 15.8447 15.2588C15.2751 15.0146 14.681 14.8926 14.0625 14.8926ZM29.6875 36.7676C29.069 36.7676 28.4749 36.8896 27.9053 37.1338C27.3356 37.3779 26.8229 37.7116 26.3672 38.1348C25.944 38.5905 25.6104 39.1032 25.3662 39.6729C25.1221 40.2425 25 40.8366 25 41.4551V44.5801H28.125V41.4551C28.125 41.2598 28.1657 41.0645 28.2471 40.8691C28.3285 40.6738 28.4342 40.4948 28.5645 40.332C28.7272 40.2018 28.9062 40.096 29.1016 40.0146C29.2969 39.9333 29.4922 39.8926 29.6875 39.8926H39.0625C39.2578 39.8926 39.4531 39.9333 39.6484 40.0146C39.8438 40.096 40.0228 40.2018 40.1855 40.332C40.3158 40.4948 40.4216 40.6738 40.5029 40.8691C40.5843 41.0645 40.625 41.2598 40.625 41.4551V44.5801H43.75V41.4551C43.75 40.8366 43.6279 40.2425 43.3838 39.6729C43.1396 39.1032 42.806 38.5905 42.3828 38.1348C41.9271 37.7116 41.4144 37.3779 40.8447 37.1338C40.2751 36.8896 39.681 36.7676 39.0625 36.7676H29.6875ZM29.1992 32.4219C28.8411 31.901 28.5726 31.3477 28.3936 30.7617C28.2145 30.1758 28.125 29.5736 28.125 28.9551C28.125 28.1413 28.2796 27.3438 28.5889 26.5625C28.8981 25.7812 29.3457 25.0977 29.9316 24.5117C30.5176 23.9258 31.2012 23.4782 31.9824 23.1689C32.7637 22.8597 33.5612 22.7051 34.375 22.7051C34.9935 22.7051 35.5957 22.7946 36.1816 22.9736C36.7676 23.1527 37.321 23.4212 37.8418 23.7793C38.3626 24.1048 38.8184 24.5036 39.209 24.9756C39.5996 25.4476 39.9089 25.9766 40.1367 26.5625C40.3971 27.1484 40.5518 27.7425 40.6006 28.3447C40.6494 28.9469 40.625 29.5573 40.5273 30.1758C40.3971 30.7943 40.1855 31.3721 39.8926 31.9092C39.5996 32.4463 39.2415 32.9427 38.8184 33.3984C38.3626 33.8216 37.8662 34.1797 37.3291 34.4727C36.792 34.7656 36.2142 34.9772 35.5957 35.1074C34.9772 35.2051 34.3669 35.2295 33.7646 35.1807C33.1624 35.1318 32.5684 34.9772 31.9824 34.7168C31.3965 34.4889 30.8675 34.1797 30.3955 33.7891C29.9235 33.3984 29.5247 32.9427 29.1992 32.4219ZM36.9629 30.7129C37.1257 30.4525 37.2559 30.1676 37.3535 29.8584C37.4512 29.5492 37.5 29.248 37.5 28.9551C37.5 28.5319 37.4186 28.1331 37.2559 27.7588C37.0931 27.3844 36.8652 27.0508 36.5723 26.7578C36.2793 26.4648 35.9456 26.237 35.5713 26.0742C35.1969 25.9115 34.7982 25.8301 34.375 25.8301C34.082 25.8301 33.7809 25.8789 33.4717 25.9766C33.1624 26.0742 32.8776 26.2044 32.6172 26.3672C32.3893 26.5299 32.1777 26.7334 31.9824 26.9775C31.7871 27.2217 31.6243 27.4902 31.4941 27.7832C31.3639 28.0436 31.2826 28.3285 31.25 28.6377C31.2174 28.9469 31.2337 29.248 31.2988 29.541C31.3639 29.8665 31.4697 30.1676 31.6162 30.4443C31.7627 30.721 31.9499 30.957 32.1777 31.1523C32.373 31.3802 32.6091 31.5674 32.8857 31.7139C33.1624 31.8604 33.4635 31.9661 33.7891 32.0312C34.082 32.0964 34.3831 32.1126 34.6924 32.0801C35.0016 32.0475 35.2865 31.9661 35.5469 31.8359C35.8398 31.7057 36.1084 31.543 36.3525 31.3477C36.5967 31.1523 36.8001 30.9408 36.9629 30.7129Z" fill="#00A86B"/>
</svg>
