<svg width="295" height="86" viewBox="0 0 295 86" fill="none" xmlns="http://www.w3.org/2000/svg">
<path d="M1.08624 79.4464C0.81424 79.3988 0.555115 79.5807 0.507507 79.8527C0.459869 80.1247 0.641754 80.3838 0.913757 80.4314L1.08624 79.4464ZM294.105 4.32238C259.316 -3.11543 234.56 -0.202408 214.243 7.90205C193.95 15.9966 178.119 29.2624 161.205 42.4191C144.277 55.5869 126.232 68.6776 101.439 76.5653C76.6492 84.4519 45.0731 87.1486 1.08624 79.4464L0.913757 80.4314C45.0238 88.1551 76.7676 85.4636 101.742 77.5182C126.713 69.574 144.875 56.3893 161.819 43.2084C178.778 30.0165 194.483 16.8607 214.613 8.83089C234.718 0.81102 259.269 -2.10288 293.895 5.30029L294.105 4.32238Z" fill="white"/>
</svg>
